<svg width="158" height="162" fill="none" xmlns="http://www.w3.org/2000/svg"><path fill-rule="evenodd" clip-rule="evenodd" d="M4 11h150.8c1.7 0 3-1.3 3-3V3c0-1.7-1.3-3-3-3H4C2.3 0 1 1.3 1 3v5c0 1.7 1.3 3 3 3Zm29.816 27.2c0 6.186-5.015 11.2-11.2 11.2-6.186 0-11.2-5.014-11.2-11.2 0-6.186 5.014-11.2 11.2-11.2 6.186 0 11.2 5.014 11.2 11.2Zm-11.2 33.6c0 6.186-5.014 11.2-11.2 11.2-6.186 0-11.2-5.014-11.2-11.2 0-6.186 5.014-11.2 11.2-11.2 6.186 0 11.2 5.014 11.2 11.2Zm0 44.8c6.186 0 11.2-5.014 11.2-11.2 0-6.186-5.015-11.2-11.2-11.2-6.186 0-11.2 5.014-11.2 11.2 0 6.186 5.014 11.2 11.2 11.2Zm11.2-44.8c0 12.3 10 22.4 22.4 22.4 12.4 0 22.4-10 22.4-22.4 0-12.3-10.1-22.4-22.4-22.4-12.3 0-22.4 10-22.4 22.4Zm11 0c0-6.3 5.1-11.4 11.4-11.4 6.3 0 11.4 5.1 11.4 11.4 0 6.3-5.1 11.4-11.4 11.4-6.3 0-11.4-5.1-11.4-11.4Zm101 56c6.186 0 11.2-5.014 11.2-11.2 0-6.186-5.014-11.2-11.2-11.2-6.186 0-11.2 5.014-11.2 11.2 0 6.186 5.014 11.2 11.2 11.2Zm0 22.4c0 6.186-5.014 11.2-11.2 11.2-6.186 0-11.2-5.014-11.2-11.2 0-6.186 5.014-11.2 11.2-11.2 6.186 0 11.2 5.014 11.2 11.2Zm-11.2-56c6.186 0 11.2-5.014 11.2-11.2 0-6.186-5.014-11.2-11.2-11.2-6.186 0-11.2 5.014-11.2 11.2 0 6.186 5.014 11.2 11.2 11.2Zm-56 22.4c0 12.3 10 22.4 22.4 22.4 12.3 0 22.4-10 22.4-22.4 0-12.3-10-22.4-22.4-22.4-12.3 0-22.4 10-22.4 22.4Zm11 0c0-6.3 5.1-11.4 11.4-11.4 6.3 0 11.4 5.1 11.4 11.4 0 6.3-5.1 11.4-11.4 11.4-6.3 0-11.4-5.1-11.4-11.4Z" fill="#897DAA"/><script xmlns=""/></svg>