<?xml version="1.0" encoding="UTF-8"?>
<svg xmlns="http://www.w3.org/2000/svg" xmlns:xlink="http://www.w3.org/1999/xlink" width="px" height="55px" viewBox="0 0 54 55" version="1.1">
<g id="surface1">
<path style=" stroke:none;fill-rule:evenodd;fill:#074447;fill-opacity:1;" d="M 1.367188 3.734375 L 52.90625 3.734375 C 53.488281 3.734375 53.933594 3.292969 53.933594 2.714844 L 53.933594 1.019531 C 53.933594 0.441406 53.488281 0 52.90625 0 L 1.367188 0 C 0.785156 0 0.339844 0.441406 0.339844 1.019531 L 0.339844 2.714844 C 0.339844 3.292969 0.785156 3.734375 1.367188 3.734375 Z M 11.558594 12.96875 C 11.558594 15.070312 9.84375 16.773438 7.730469 16.773438 C 5.617188 16.773438 3.902344 15.070312 3.902344 12.96875 C 3.902344 10.867188 5.617188 9.167969 7.730469 9.167969 C 9.84375 9.167969 11.558594 10.867188 11.558594 12.96875 Z M 7.730469 24.375 C 7.730469 26.476562 6.015625 28.179688 3.902344 28.179688 C 1.789062 28.179688 0.0742188 26.476562 0.0742188 24.375 C 0.0742188 22.277344 1.789062 20.574219 3.902344 20.574219 C 6.015625 20.574219 7.730469 22.277344 7.730469 24.375 Z M 7.730469 39.585938 C 9.84375 39.585938 11.558594 37.882812 11.558594 35.785156 C 11.558594 33.683594 9.84375 31.980469 7.730469 31.980469 C 5.617188 31.980469 3.902344 33.683594 3.902344 35.785156 C 3.902344 37.882812 5.617188 39.585938 7.730469 39.585938 Z M 11.558594 24.375 C 11.558594 28.550781 14.976562 31.980469 19.214844 31.980469 C 23.449219 31.980469 26.867188 28.585938 26.867188 24.375 C 26.867188 20.199219 23.417969 16.773438 19.214844 16.773438 C 15.007812 16.773438 11.558594 20.167969 11.558594 24.375 Z M 15.316406 24.375 C 15.316406 22.238281 17.058594 20.507812 19.214844 20.507812 C 21.367188 20.507812 23.109375 22.238281 23.109375 24.375 C 23.109375 26.515625 21.367188 28.246094 19.214844 28.246094 C 17.058594 28.246094 15.316406 26.515625 15.316406 24.375 Z M 49.835938 43.390625 C 51.949219 43.390625 53.664062 41.6875 53.664062 39.585938 C 53.664062 37.484375 51.949219 35.785156 49.835938 35.785156 C 47.722656 35.785156 46.007812 37.484375 46.007812 39.585938 C 46.007812 41.6875 47.722656 43.390625 49.835938 43.390625 Z M 49.835938 50.992188 C 49.835938 53.09375 48.121094 54.796875 46.007812 54.796875 C 43.894531 54.796875 42.179688 53.09375 42.179688 50.992188 C 42.179688 48.894531 43.894531 47.191406 46.007812 47.191406 C 48.121094 47.191406 49.835938 48.894531 49.835938 50.992188 Z M 46.007812 31.980469 C 48.121094 31.980469 49.835938 30.277344 49.835938 28.179688 C 49.835938 26.078125 48.121094 24.375 46.007812 24.375 C 43.894531 24.375 42.179688 26.078125 42.179688 28.179688 C 42.179688 30.277344 43.894531 31.980469 46.007812 31.980469 Z M 26.867188 39.585938 C 26.867188 43.761719 30.285156 47.191406 34.523438 47.191406 C 38.726562 47.191406 42.179688 43.796875 42.179688 39.585938 C 42.179688 35.410156 38.761719 31.980469 34.523438 31.980469 C 30.320312 31.980469 26.867188 35.375 26.867188 39.585938 Z M 30.628906 39.585938 C 30.628906 37.449219 32.371094 35.714844 34.523438 35.714844 C 36.675781 35.714844 38.421875 37.449219 38.421875 39.585938 C 38.421875 41.726562 36.675781 43.457031 34.523438 43.457031 C 32.371094 43.457031 30.628906 41.726562 30.628906 39.585938 Z M 30.628906 39.585938 "/>
</g>
</svg>
