<svg width="135" height="129" fill="none" xmlns="http://www.w3.org/2000/svg"><path d="M53 11H3c-1.7 0-3-1.3-3-3V3c0-1.7 1.3-3 3-3h50c1.7 0 3 1.3 3 3v5c0 1.7-1.3 3-3 3ZM44.8 50.3c6.186 0 11.2-5.014 11.2-11.2 0-6.186-5.014-11.2-11.2-11.2-6.186 0-11.2 5.014-11.2 11.2 0 6.186 5.014 11.2 11.2 11.2ZM11.2 50.3c6.186 0 11.2-5.014 11.2-11.2 0-6.186-5.014-11.2-11.2-11.2C5.014 27.9 0 32.914 0 39.1c0 6.186 5.014 11.2 11.2 11.2ZM131.8 11h-50c-1.7 0-3-1.3-3-3V3c0-1.7 1.3-3 3-3h50c1.7 0 3 1.3 3 3v5c0 1.7-1.3 3-3 3ZM123.6 50.3c6.186 0 11.2-5.014 11.2-11.2 0-6.186-5.014-11.2-11.2-11.2-6.186 0-11.2 5.014-11.2 11.2 0 6.186 5.014 11.2 11.2 11.2ZM90 50.3c6.186 0 11.2-5.014 11.2-11.2 0-6.186-5.014-11.2-11.2-11.2-6.186 0-11.2 5.014-11.2 11.2 0 6.186 5.014 11.2 11.2 11.2ZM53 89.4H3c-1.7 0-3-1.3-3-3v-5c0-1.7 1.3-3 3-3h50c1.7 0 3 1.3 3 3v5c0 1.7-1.3 3-3 3ZM44.8 128.7c6.186 0 11.2-5.014 11.2-11.2 0-6.186-5.014-11.2-11.2-11.2-6.186 0-11.2 5.014-11.2 11.2 0 6.186 5.014 11.2 11.2 11.2ZM11.2 128.7c6.186 0 11.2-5.014 11.2-11.2 0-6.186-5.014-11.2-11.2-11.2-6.186 0-11.2 5.014-11.2 11.2 0 6.186 5.014 11.2 11.2 11.2ZM131.8 89.4h-50c-1.7 0-3-1.3-3-3v-5c0-1.7 1.3-3 3-3h50c1.7 0 3 1.3 3 3v5c0 1.7-1.3 3-3 3ZM123.6 128.7c6.186 0 11.2-5.014 11.2-11.2 0-6.186-5.014-11.2-11.2-11.2-6.186 0-11.2 5.014-11.2 11.2 0 6.186 5.014 11.2 11.2 11.2ZM90 128.7c6.186 0 11.2-5.014 11.2-11.2 0-6.186-5.014-11.2-11.2-11.2-6.186 0-11.2 5.014-11.2 11.2 0 6.186 5.014 11.2 11.2 11.2Z" fill="#897DAA"/><script xmlns=""/></svg>