<?xml version="1.0" encoding="UTF-8"?>
<svg xmlns="http://www.w3.org/2000/svg" xmlns:xlink="http://www.w3.org/1999/xlink" width="px" height="55px" viewBox="0 0 57 55" version="1.1">
<g id="surface1">
<path style=" stroke:none;fill-rule:nonzero;fill:#074447;fill-opacity:1;" d="M 22.378906 4.691406 L 1.265625 4.691406 C 0.550781 4.691406 0 4.136719 0 3.410156 L 0 1.277344 C 0 0.554688 0.550781 0 1.265625 0 L 22.378906 0 C 23.09375 0 23.644531 0.554688 23.644531 1.277344 L 23.644531 3.410156 C 23.644531 4.136719 23.09375 4.691406 22.378906 4.691406 Z M 18.914062 21.445312 C 21.527344 21.445312 23.644531 19.308594 23.644531 16.671875 C 23.644531 14.03125 21.527344 11.894531 18.914062 11.894531 C 16.304688 11.894531 14.1875 14.03125 14.1875 16.671875 C 14.1875 19.308594 16.304688 21.445312 18.914062 21.445312 Z M 4.730469 21.445312 C 7.339844 21.445312 9.457031 19.308594 9.457031 16.671875 C 9.457031 14.03125 7.339844 11.894531 4.730469 11.894531 C 2.117188 11.894531 0 14.03125 0 16.671875 C 0 19.308594 2.117188 21.445312 4.730469 21.445312 Z M 55.648438 4.691406 L 34.539062 4.691406 C 33.820312 4.691406 33.269531 4.136719 33.269531 3.410156 L 33.269531 1.277344 C 33.269531 0.554688 33.820312 0 34.539062 0 L 55.648438 0 C 56.367188 0 56.914062 0.554688 56.914062 1.277344 L 56.914062 3.410156 C 56.914062 4.136719 56.367188 4.691406 55.648438 4.691406 Z M 52.1875 21.445312 C 54.796875 21.445312 56.914062 19.308594 56.914062 16.671875 C 56.914062 14.03125 54.796875 11.894531 52.1875 11.894531 C 49.574219 11.894531 47.457031 14.03125 47.457031 16.671875 C 47.457031 19.308594 49.574219 21.445312 52.1875 21.445312 Z M 38 21.445312 C 40.613281 21.445312 42.730469 19.308594 42.730469 16.671875 C 42.730469 14.03125 40.613281 11.894531 38 11.894531 C 35.386719 11.894531 33.269531 14.03125 33.269531 16.671875 C 33.269531 19.308594 35.386719 21.445312 38 21.445312 Z M 22.378906 38.117188 L 1.265625 38.117188 C 0.550781 38.117188 0 37.5625 0 36.835938 L 0 34.707031 C 0 33.980469 0.550781 33.425781 1.265625 33.425781 L 22.378906 33.425781 C 23.09375 33.425781 23.644531 33.980469 23.644531 34.707031 L 23.644531 36.835938 C 23.644531 37.5625 23.09375 38.117188 22.378906 38.117188 Z M 18.914062 54.871094 C 21.527344 54.871094 23.644531 52.734375 23.644531 50.097656 C 23.644531 47.460938 21.527344 45.320312 18.914062 45.320312 C 16.304688 45.320312 14.1875 47.460938 14.1875 50.097656 C 14.1875 52.734375 16.304688 54.871094 18.914062 54.871094 Z M 4.730469 54.871094 C 7.339844 54.871094 9.457031 52.734375 9.457031 50.097656 C 9.457031 47.460938 7.339844 45.320312 4.730469 45.320312 C 2.117188 45.320312 0 47.460938 0 50.097656 C 0 52.734375 2.117188 54.871094 4.730469 54.871094 Z M 55.648438 38.117188 L 34.539062 38.117188 C 33.820312 38.117188 33.269531 37.5625 33.269531 36.835938 L 33.269531 34.707031 C 33.269531 33.980469 33.820312 33.425781 34.539062 33.425781 L 55.648438 33.425781 C 56.367188 33.425781 56.914062 33.980469 56.914062 34.707031 L 56.914062 36.835938 C 56.914062 37.5625 56.367188 38.117188 55.648438 38.117188 Z M 52.1875 54.871094 C 54.796875 54.871094 56.914062 52.734375 56.914062 50.097656 C 56.914062 47.460938 54.796875 45.320312 52.1875 45.320312 C 49.574219 45.320312 47.457031 47.460938 47.457031 50.097656 C 47.457031 52.734375 49.574219 54.871094 52.1875 54.871094 Z M 38 54.871094 C 40.613281 54.871094 42.730469 52.734375 42.730469 50.097656 C 42.730469 47.460938 40.613281 45.320312 38 45.320312 C 35.386719 45.320312 33.269531 47.460938 33.269531 50.097656 C 33.269531 52.734375 35.386719 54.871094 38 54.871094 Z M 38 54.871094 "/>
</g>
</svg>
