<svg width="158" height="135" fill="none" xmlns="http://www.w3.org/2000/svg"><path d="M11.416 56c6.186 0 11.2-5.014 11.2-11.2 0-6.186-5.014-11.2-11.2-11.2-6.186 0-11.2 5.014-11.2 11.2 0 6.186 5.014 11.2 11.2 11.2ZM22.616 22.4c6.186 0 11.2-5.014 11.2-11.2 0-6.186-5.015-11.2-11.2-11.2-6.186 0-11.2 5.014-11.2 11.2 0 6.186 5.014 11.2 11.2 11.2ZM22.616 89.6c6.186 0 11.2-5.014 11.2-11.2 0-6.186-5.015-11.2-11.2-11.2-6.186 0-11.2 5.014-11.2 11.2 0 6.186 5.014 11.2 11.2 11.2ZM56.216 67.2c-12.4 0-22.4-10.1-22.4-22.4 0-12.4 10.1-22.4 22.4-22.4 12.3 0 22.4 10.1 22.4 22.4 0 12.4-10 22.4-22.4 22.4Zm0-33.8c-6.3 0-11.4 5.1-11.4 11.4 0 6.3 5.1 11.4 11.4 11.4 6.3 0 11.4-5.1 11.4-11.4 0-6.3-5.1-11.4-11.4-11.4ZM145.816 100.8c6.186 0 11.2-5.014 11.2-11.2 0-6.186-5.014-11.2-11.2-11.2-6.186 0-11.2 5.014-11.2 11.2 0 6.186 5.014 11.2 11.2 11.2ZM134.616 134.4c6.186 0 11.2-5.014 11.2-11.2 0-6.186-5.014-11.2-11.2-11.2-6.186 0-11.2 5.014-11.2 11.2 0 6.186 5.014 11.2 11.2 11.2ZM134.616 67.2c6.186 0 11.2-5.014 11.2-11.2 0-6.186-5.014-11.2-11.2-11.2-6.186 0-11.2 5.014-11.2 11.2 0 6.186 5.014 11.2 11.2 11.2ZM101.016 112c-12.4 0-22.4-10.1-22.4-22.4 0-12.4 10.1-22.4 22.4-22.4 12.4 0 22.4 10.1 22.4 22.4 0 12.4-10.1 22.4-22.4 22.4Zm0-33.8c-6.3 0-11.4 5.1-11.4 11.4 0 6.3 5.1 11.4 11.4 11.4 6.3 0 11.4-5.1 11.4-11.4 0-6.3-5.1-11.4-11.4-11.4Z" fill="#897DAA"/><script xmlns=""/></svg>