<?xml version="1.0" encoding="UTF-8"?>
<svg xmlns="http://www.w3.org/2000/svg" xmlns:xlink="http://www.w3.org/1999/xlink" width="px" height="55px" viewBox="0 0 64 55" version="1.1">
<g id="surface1">
<path style=" stroke:none;fill-rule:nonzero;fill:#074447;fill-opacity:1;" d="M 4.625 22.816406 C 7.128906 22.816406 9.160156 20.773438 9.160156 18.25 C 9.160156 15.730469 7.128906 13.6875 4.625 13.6875 C 2.117188 13.6875 0.0859375 15.730469 0.0859375 18.25 C 0.0859375 20.773438 2.117188 22.816406 4.625 22.816406 Z M 9.160156 9.125 C 11.667969 9.125 13.699219 7.082031 13.699219 4.5625 C 13.699219 2.042969 11.667969 0 9.160156 0 C 6.65625 0 4.625 2.042969 4.625 4.5625 C 4.625 7.082031 6.65625 9.125 9.160156 9.125 Z M 9.160156 36.503906 C 11.667969 36.503906 13.699219 34.460938 13.699219 31.941406 C 13.699219 29.421875 11.667969 27.378906 9.160156 27.378906 C 6.65625 27.378906 4.625 29.421875 4.625 31.941406 C 4.625 34.460938 6.65625 36.503906 9.160156 36.503906 Z M 22.769531 27.378906 C 17.75 27.378906 13.699219 23.261719 13.699219 18.25 C 13.699219 13.199219 17.789062 9.125 22.769531 9.125 C 27.753906 9.125 31.84375 13.242188 31.84375 18.25 C 31.84375 23.304688 27.792969 27.378906 22.769531 27.378906 Z M 22.769531 13.605469 C 20.21875 13.605469 18.152344 15.683594 18.152344 18.25 C 18.152344 20.820312 20.21875 22.894531 22.769531 22.894531 C 25.324219 22.894531 27.390625 20.820312 27.390625 18.25 C 27.390625 15.683594 25.324219 13.605469 22.769531 13.605469 Z M 59.066406 41.066406 C 61.570312 41.066406 63.601562 39.023438 63.601562 36.503906 C 63.601562 33.984375 61.570312 31.941406 59.066406 31.941406 C 56.558594 31.941406 54.527344 33.984375 54.527344 36.503906 C 54.527344 39.023438 56.558594 41.066406 59.066406 41.066406 Z M 54.527344 54.753906 C 57.035156 54.753906 59.066406 52.710938 59.066406 50.191406 C 59.066406 47.671875 57.035156 45.628906 54.527344 45.628906 C 52.023438 45.628906 49.992188 47.671875 49.992188 50.191406 C 49.992188 52.710938 52.023438 54.753906 54.527344 54.753906 Z M 54.527344 27.378906 C 57.035156 27.378906 59.066406 25.335938 59.066406 22.816406 C 59.066406 20.292969 57.035156 18.25 54.527344 18.25 C 52.023438 18.25 49.992188 20.292969 49.992188 22.816406 C 49.992188 25.335938 52.023438 27.378906 54.527344 27.378906 Z M 40.917969 45.628906 C 35.894531 45.628906 31.84375 41.515625 31.84375 36.503906 C 31.84375 31.453125 35.9375 27.378906 40.917969 27.378906 C 45.941406 27.378906 49.992188 31.492188 49.992188 36.503906 C 49.992188 41.554688 45.898438 45.628906 40.917969 45.628906 Z M 40.917969 31.859375 C 38.367188 31.859375 36.300781 33.9375 36.300781 36.503906 C 36.300781 39.070312 38.367188 41.148438 40.917969 41.148438 C 43.46875 41.148438 45.535156 39.070312 45.535156 36.503906 C 45.535156 33.9375 43.46875 31.859375 40.917969 31.859375 Z M 40.917969 31.859375 "/>
</g>
</svg>
