<?xml version="1.0" encoding="UTF-8"?>
<svg xmlns="http://www.w3.org/2000/svg" xmlns:xlink="http://www.w3.org/1999/xlink" width="px" height="55px" viewBox="0 0 77 55" version="1.1">
<g id="surface1">
<path style=" stroke:none;fill-rule:nonzero;fill:#074447;fill-opacity:1;" d="M 58.953125 24.699219 L 17.949219 24.699219 C 17.117188 24.699219 16.480469 24.0625 16.480469 23.226562 L 16.480469 20.773438 C 16.480469 19.9375 17.117188 19.300781 17.949219 19.300781 L 58.953125 19.300781 C 59.785156 19.300781 60.421875 19.9375 60.421875 20.773438 L 60.421875 23.226562 C 60.421875 24.0625 59.785156 24.699219 58.953125 24.699219 Z M 58.953125 35.699219 L 17.949219 35.699219 C 17.117188 35.699219 16.480469 35.0625 16.480469 34.226562 L 16.480469 31.773438 C 16.480469 30.9375 17.117188 30.300781 17.949219 30.300781 L 58.953125 30.300781 C 59.785156 30.300781 60.421875 30.9375 60.421875 31.773438 L 60.421875 34.226562 C 60.421875 35.0625 59.785156 35.699219 58.953125 35.699219 Z M 71.410156 33 C 74.441406 33 76.902344 30.539062 76.902344 27.5 C 76.902344 24.460938 74.441406 22 71.410156 22 C 68.375 22 65.914062 24.460938 65.914062 27.5 C 65.914062 30.539062 68.375 33 71.410156 33 Z M 5.492188 33 C 8.527344 33 10.984375 30.539062 10.984375 27.5 C 10.984375 24.460938 8.527344 22 5.492188 22 C 2.460938 22 0 24.460938 0 27.5 C 0 30.539062 2.460938 33 5.492188 33 Z M 21.972656 11 C 25.007812 11 27.464844 8.539062 27.464844 5.5 C 27.464844 2.460938 25.007812 0 21.972656 0 C 18.9375 0 16.480469 2.460938 16.480469 5.5 C 16.480469 8.539062 18.9375 11 21.972656 11 Z M 38.449219 11 C 41.484375 11 43.945312 8.539062 43.945312 5.5 C 43.945312 2.460938 41.484375 0 38.449219 0 C 35.417969 0 32.957031 2.460938 32.957031 5.5 C 32.957031 8.539062 35.417969 11 38.449219 11 Z M 54.929688 11 C 57.964844 11 60.421875 8.539062 60.421875 5.5 C 60.421875 2.460938 57.964844 0 54.929688 0 C 51.894531 0 49.4375 2.460938 49.4375 5.5 C 49.4375 8.539062 51.894531 11 54.929688 11 Z M 21.972656 55 C 25.007812 55 27.464844 52.539062 27.464844 49.5 C 27.464844 46.460938 25.007812 44 21.972656 44 C 18.9375 44 16.480469 46.460938 16.480469 49.5 C 16.480469 52.539062 18.9375 55 21.972656 55 Z M 38.449219 55 C 41.484375 55 43.945312 52.539062 43.945312 49.5 C 43.945312 46.460938 41.484375 44 38.449219 44 C 35.417969 44 32.957031 46.460938 32.957031 49.5 C 32.957031 52.539062 35.417969 55 38.449219 55 Z M 54.929688 55 C 57.964844 55 60.421875 52.539062 60.421875 49.5 C 60.421875 46.460938 57.964844 44 54.929688 44 C 51.894531 44 49.4375 46.460938 49.4375 49.5 C 49.4375 52.539062 51.894531 55 54.929688 55 Z M 54.929688 55 "/>
</g>
</svg>
