<svg xmlns="http://www.w3.org/2000/svg" width="157" height="112" fill="none"><path fill="#897DAA" d="M120.2 50.3H36.6c-1.7 0-3-1.3-3-3v-5c0-1.7 1.3-3 3-3h83.6c1.7 0 3 1.3 3 3v5c0 1.7-1.3 3-3 3ZM120.2 72.7H36.6c-1.7 0-3-1.3-3-3v-5c0-1.7 1.3-3 3-3h83.6c1.7 0 3 1.3 3 3v5c0 1.7-1.3 3-3 3ZM145.6 67.2c6.186 0 11.2-5.014 11.2-11.2 0-6.186-5.014-11.2-11.2-11.2-6.186 0-11.2 5.014-11.2 11.2 0 6.186 5.014 11.2 11.2 11.2ZM11.2 67.2c6.186 0 11.2-5.014 11.2-11.2 0-6.186-5.014-11.2-11.2-11.2C5.014 44.8 0 49.814 0 56c0 6.186 5.014 11.2 11.2 11.2ZM44.8 22.4c6.186 0 11.2-5.014 11.2-11.2C56 5.014 50.986 0 44.8 0c-6.186 0-11.2 5.014-11.2 11.2 0 6.186 5.014 11.2 11.2 11.2ZM78.4 22.4c6.186 0 11.2-5.014 11.2-11.2C89.6 5.014 84.586 0 78.4 0c-6.186 0-11.2 5.014-11.2 11.2 0 6.186 5.014 11.2 11.2 11.2ZM112 22.4c6.186 0 11.2-5.014 11.2-11.2C123.2 5.014 118.186 0 112 0c-6.186 0-11.2 5.014-11.2 11.2 0 6.186 5.014 11.2 11.2 11.2ZM44.8 112c6.186 0 11.2-5.014 11.2-11.2 0-6.186-5.014-11.2-11.2-11.2-6.186 0-11.2 5.014-11.2 11.2 0 6.186 5.014 11.2 11.2 11.2ZM78.4 112c6.186 0 11.2-5.014 11.2-11.2 0-6.186-5.014-11.2-11.2-11.2-6.186 0-11.2 5.014-11.2 11.2 0 6.186 5.014 11.2 11.2 11.2ZM112 112c6.186 0 11.2-5.014 11.2-11.2 0-6.186-5.014-11.2-11.2-11.2-6.186 0-11.2 5.014-11.2 11.2 0 6.186 5.014 11.2 11.2 11.2Z"/><script xmlns=""/></svg>