<?xml version="1.0" encoding="UTF-8"?>
<svg xmlns="http://www.w3.org/2000/svg" xmlns:xlink="http://www.w3.org/1999/xlink" width="px" height="55px" viewBox="0 0 63 55" version="1.1">
<g id="surface1">
<path style=" stroke:none;fill-rule:nonzero;fill:#074447;fill-opacity:1;" d="M 45.945312 38.746094 L 16.972656 38.746094 C 16.292969 38.746094 15.769531 38.214844 15.769531 37.523438 L 15.769531 1.222656 C 15.769531 0.53125 16.292969 0 16.972656 0 L 18.980469 0 C 19.664062 0 20.183594 0.53125 20.183594 1.222656 L 20.183594 33.039062 C 20.183594 33.734375 20.707031 34.261719 21.386719 34.261719 L 41.53125 34.261719 C 42.214844 34.261719 42.734375 33.734375 42.734375 33.039062 L 42.734375 1.222656 C 42.734375 0.53125 43.257812 0 43.941406 0 L 45.945312 0 C 46.628906 0 47.148438 0.53125 47.148438 1.222656 L 47.148438 37.523438 C 47.148438 38.214844 46.628906 38.746094 45.945312 38.746094 Z M 4.496094 41.066406 C 6.976562 41.066406 8.988281 39.023438 8.988281 36.503906 C 8.988281 33.984375 6.976562 31.941406 4.496094 31.941406 C 2.011719 31.941406 0 33.984375 0 36.503906 C 0 39.023438 2.011719 41.066406 4.496094 41.066406 Z M 4.496094 27.378906 C 6.976562 27.378906 8.988281 25.335938 8.988281 22.816406 C 8.988281 20.292969 6.976562 18.25 4.496094 18.25 C 2.011719 18.25 0 20.292969 0 22.816406 C 0 25.335938 2.011719 27.378906 4.496094 27.378906 Z M 4.496094 13.6875 C 6.976562 13.6875 8.988281 11.644531 8.988281 9.125 C 8.988281 6.605469 6.976562 4.5625 4.496094 4.5625 C 2.011719 4.5625 0 6.605469 0 9.125 C 0 11.644531 2.011719 13.6875 4.496094 13.6875 Z M 58.425781 41.066406 C 60.90625 41.066406 62.917969 39.023438 62.917969 36.503906 C 62.917969 33.984375 60.90625 31.941406 58.425781 31.941406 C 55.941406 31.941406 53.929688 33.984375 53.929688 36.503906 C 53.929688 39.023438 55.941406 41.066406 58.425781 41.066406 Z M 58.425781 27.378906 C 60.90625 27.378906 62.917969 25.335938 62.917969 22.816406 C 62.917969 20.292969 60.90625 18.25 58.425781 18.25 C 55.941406 18.25 53.929688 20.292969 53.929688 22.816406 C 53.929688 25.335938 55.941406 27.378906 58.425781 27.378906 Z M 58.425781 13.6875 C 60.90625 13.6875 62.917969 11.644531 62.917969 9.125 C 62.917969 6.605469 60.90625 4.5625 58.425781 4.5625 C 55.941406 4.5625 53.929688 6.605469 53.929688 9.125 C 53.929688 11.644531 55.941406 13.6875 58.425781 13.6875 Z M 17.976562 54.753906 C 20.460938 54.753906 22.472656 52.710938 22.472656 50.191406 C 22.472656 47.671875 20.460938 45.628906 17.976562 45.628906 C 15.496094 45.628906 13.484375 47.671875 13.484375 50.191406 C 13.484375 52.710938 15.496094 54.753906 17.976562 54.753906 Z M 31.460938 54.753906 C 33.941406 54.753906 35.953125 52.710938 35.953125 50.191406 C 35.953125 47.671875 33.941406 45.628906 31.460938 45.628906 C 28.976562 45.628906 26.964844 47.671875 26.964844 50.191406 C 26.964844 52.710938 28.976562 54.753906 31.460938 54.753906 Z M 44.941406 54.753906 C 47.425781 54.753906 49.4375 52.710938 49.4375 50.191406 C 49.4375 47.671875 47.425781 45.628906 44.941406 45.628906 C 42.460938 45.628906 40.449219 47.671875 40.449219 50.191406 C 40.449219 52.710938 42.460938 54.753906 44.941406 54.753906 Z M 44.941406 54.753906 "/>
</g>
</svg>
