<svg width="157" height="135" fill="none" xmlns="http://www.w3.org/2000/svg"><path d="M114.5 95.1H42.3c-1.7 0-3-1.3-3-3V3c0-1.7 1.3-3 3-3h5c1.7 0 3 1.3 3 3v78.1c0 1.7 1.3 3 3 3h50.2c1.7 0 3-1.3 3-3V3c0-1.7 1.3-3 3-3h5c1.7 0 3 1.3 3 3v89.1c0 1.7-1.3 3-3 3ZM11.2 100.8c6.186 0 11.2-5.014 11.2-11.2 0-6.186-5.014-11.2-11.2-11.2C5.014 78.4 0 83.414 0 89.6c0 6.186 5.014 11.2 11.2 11.2ZM11.2 67.2c6.186 0 11.2-5.014 11.2-11.2 0-6.186-5.014-11.2-11.2-11.2C5.014 44.8 0 49.814 0 56c0 6.186 5.014 11.2 11.2 11.2ZM11.2 33.6c6.186 0 11.2-5.014 11.2-11.2 0-6.186-5.014-11.2-11.2-11.2C5.014 11.2 0 16.214 0 22.4c0 6.186 5.014 11.2 11.2 11.2ZM145.6 100.8c6.186 0 11.2-5.014 11.2-11.2 0-6.186-5.014-11.2-11.2-11.2-6.186 0-11.2 5.014-11.2 11.2 0 6.186 5.014 11.2 11.2 11.2ZM145.6 67.2c6.186 0 11.2-5.014 11.2-11.2 0-6.186-5.014-11.2-11.2-11.2-6.186 0-11.2 5.014-11.2 11.2 0 6.186 5.014 11.2 11.2 11.2ZM145.6 33.6c6.186 0 11.2-5.014 11.2-11.2 0-6.186-5.014-11.2-11.2-11.2-6.186 0-11.2 5.014-11.2 11.2 0 6.186 5.014 11.2 11.2 11.2ZM44.8 134.4c6.186 0 11.2-5.014 11.2-11.2 0-6.186-5.014-11.2-11.2-11.2-6.186 0-11.2 5.014-11.2 11.2 0 6.186 5.014 11.2 11.2 11.2ZM78.4 134.4c6.186 0 11.2-5.014 11.2-11.2 0-6.186-5.014-11.2-11.2-11.2-6.186 0-11.2 5.014-11.2 11.2 0 6.186 5.014 11.2 11.2 11.2ZM112 134.4c6.186 0 11.2-5.014 11.2-11.2 0-6.186-5.014-11.2-11.2-11.2-6.186 0-11.2 5.014-11.2 11.2 0 6.186 5.014 11.2 11.2 11.2Z" fill="#897DAA"/><script xmlns=""/></svg>